<svg xmlns="http://www.w3.org/2000/svg" width="800" height="600" viewBox="0 0 800 600">
  <!-- 배경 -->
  <defs>
    <linearGradient id="bg-gradient" x1="0%" y1="0%" x2="100%" y2="100%">
      <stop offset="0%" stop-color="#f0f9ff" />
      <stop offset="100%" stop-color="#e0f2fe" />
    </linearGradient>
  </defs>
  <rect width="800" height="600" fill="url(#bg-gradient)" rx="20" ry="20" />
  
  <!-- 회의 테이블 -->
  <rect x="150" y="320" width="500" height="200" rx="5" ry="5" fill="#f8fafc" stroke="#94a3b8" stroke-width="2" />
  <ellipse cx="400" cy="320" rx="250" ry="50" fill="#f1f5f9" stroke="#94a3b8" stroke-width="2" />
  
  <!-- 회의 자료 -->
  <rect x="240" y="280" width="120" height="80" rx="2" ry="2" fill="white" stroke="#94a3b8" stroke-width="1" transform="rotate(-5, 300, 320)" />
  <rect x="250" y="290" width="80" height="5" rx="1" ry="1" fill="#64748b" transform="rotate(-5, 300, 320)" />
  <rect x="250" y="300" width="100" height="3" rx="1" ry="1" fill="#94a3b8" transform="rotate(-5, 300, 320)" />
  <rect x="250" y="310" width="90" height="3" rx="1" ry="1" fill="#94a3b8" transform="rotate(-5, 300, 320)" />
  <rect x="250" y="320" width="95" height="3" rx="1" ry="1" fill="#94a3b8" transform="rotate(-5, 300, 320)" />
  
  <!-- 특허 문서 -->
  <rect x="380" y="280" width="120" height="80" rx="2" ry="2" fill="white" stroke="#94a3b8" stroke-width="1" transform="rotate(3, 440, 320)" />
  <rect x="390" y="290" width="80" height="5" rx="1" ry="1" fill="#1e40af" transform="rotate(3, 440, 320)" />
  <rect x="390" y="300" width="100" height="3" rx="1" ry="1" fill="#94a3b8" transform="rotate(3, 440, 320)" />
  <circle cx="410" cy="315" r="8" fill="#dbeafe" stroke="#1e40af" stroke-width="1" transform="rotate(3, 440, 320)" />
  <rect x="425" y="310" width="65" height="3" rx="1" ry="1" fill="#94a3b8" transform="rotate(3, 440, 320)" />
  <rect x="425" y="320" width="60" height="3" rx="1" ry="1" fill="#94a3b8" transform="rotate(3, 440, 320)" />
  <rect x="425" y="330" width="55" height="3" rx="1" ry="1" fill="#94a3b8" transform="rotate(3, 440, 320)" />
  
  <!-- 인증 서류 -->
  <rect x="455" y="290" width="110" height="65" rx="2" ry="2" fill="white" stroke="#94a3b8" stroke-width="1" transform="rotate(-2, 490, 320)" />
  <rect x="465" y="300" width="70" height="5" rx="1" ry="1" fill="#15803d" transform="rotate(-2, 490, 320)" />
  <rect x="465" y="310" width="90" height="3" rx="1" ry="1" fill="#94a3b8" transform="rotate(-2, 490, 320)" />
  <rect x="465" y="320" width="85" height="3" rx="1" ry="1" fill="#94a3b8" transform="rotate(-2, 490, 320)" />
  <rect x="465" y="330" width="75" height="3" rx="1" ry="1" fill="#94a3b8" transform="rotate(-2, 490, 320)" />
  <circle cx="535" cy="320" r="12" fill="#dcfce7" stroke="#15803d" stroke-width="1.5" transform="rotate(-2, 490, 320)" />
  <text x="535" y="324" font-family="Arial" font-size="12" font-weight="bold" fill="#15803d" text-anchor="middle" transform="rotate(-2, 490, 320)">√</text>
  
  <!-- 전략 보드 -->
  <rect x="200" y="120" width="400" height="130" rx="5" ry="5" fill="white" stroke="#475569" stroke-width="2" />
  <rect x="200" y="120" width="400" height="30" rx="5" ry="5" fill="#1e40af" />
  <text x="400" y="140" font-family="Arial" font-size="14" font-weight="bold" fill="white" text-anchor="middle">통합 전략: 인증 - 특허 - 조달</text>
  
  <!-- 다이어그램 -->
  <circle cx="275" cy="185" r="25" fill="#dbeafe" stroke="#1e40af" stroke-width="2" />
  <text x="275" y="190" font-family="Arial" font-size="10" font-weight="bold" fill="#1e40af" text-anchor="middle">고객 기술</text>
  
  <circle cx="375" cy="185" r="25" fill="#dbeafe" stroke="#1e40af" stroke-width="2" />
  <text x="375" y="190" font-family="Arial" font-size="10" font-weight="bold" fill="#1e40af" text-anchor="middle">인증</text>
  
  <circle cx="475" cy="185" r="25" fill="#dbeafe" stroke="#1e40af" stroke-width="2" />
  <text x="475" y="190" font-family="Arial" font-size="10" font-weight="bold" fill="#1e40af" text-anchor="middle">특허</text>
  
  <circle cx="525" cy="230" r="25" fill="#dcfce7" stroke="#15803d" stroke-width="2" />
  <text x="525" y="235" font-family="Arial" font-size="10" font-weight="bold" fill="#15803d" text-anchor="middle">조달</text>
  
  <!-- 연결선 -->
  <line x1="300" y1="185" x2="350" y2="185" stroke="#1e40af" stroke-width="2" />
  <line x1="400" y1="185" x2="450" y2="185" stroke="#1e40af" stroke-width="2" />
  <line x1="475" y1="210" x2="508" y2="230" stroke="#15803d" stroke-width="2" />
  <line x1="375" y1="210" x2="512" y2="230" stroke="#15803d" stroke-width="2" />
  
  <!-- 캐릭터 1: 컨설턴트 -->
  <circle cx="180" cy="380" r="30" fill="#bfdbfe" />
  <circle cx="180" cy="330" r="20" fill="#dbeafe" stroke="#1e40af" stroke-width="1.5" />
  <path d="M165 330 Q180 345 195 330" fill="none" stroke="#1e40af" stroke-width="1.5" />
  <circle cx="172" cy="325" r="3" fill="#1e40af" />
  <circle cx="188" cy="325" r="3" fill="#1e40af" />
  <rect x="160" y="360" width="40" height="60" rx="5" ry="5" fill="#1e40af" />
  
  <!-- 캐릭터 2: 변리사 -->
  <circle cx="620" cy="380" r="30" fill="#bfdbfe" />
  <circle cx="620" cy="330" r="20" fill="#dbeafe" stroke="#1e40af" stroke-width="1.5" />
  <path d="M605 330 Q620 345 635 330" fill="none" stroke="#1e40af" stroke-width="1.5" />
  <circle cx="612" cy="325" r="3" fill="#1e40af" />
  <circle cx="628" cy="325" r="3" fill="#1e40af" />
  <rect x="600" y="360" width="40" height="60" rx="5" ry="5" fill="#059669" />
  
  <!-- 캐릭터 3: 엔지니어 -->
  <circle cx="300" cy="440" r="30" fill="#bbf7d0" />
  <circle cx="300" cy="390" r="20" fill="#dcfce7" stroke="#15803d" stroke-width="1.5" />
  <path d="M285 390 Q300 405 315 390" fill="none" stroke="#15803d" stroke-width="1.5" />
  <circle cx="292" cy="385" r="3" fill="#15803d" />
  <circle cx="308" cy="385" r="3" fill="#15803d" />
  <rect x="280" y="420" width="40" height="60" rx="5" ry="5" fill="#15803d" />
  
  <!-- 캐릭터 4: 매니저 -->
  <circle cx="500" cy="440" r="30" fill="#bbf7d0" />
  <circle cx="500" cy="390" r="20" fill="#dcfce7" stroke="#15803d" stroke-width="1.5" />
  <path d="M485 390 Q500 405 515 390" fill="none" stroke="#15803d" stroke-width="1.5" />
  <circle cx="492" cy="385" r="3" fill="#15803d" />
  <circle cx="508" cy="385" r="3" fill="#15803d" />
  <rect x="480" y="420" width="40" height="60" rx="5" ry="5" fill="#1e3a8a" />
  
  <!-- 타이틀 -->
  <text x="400" y="40" font-family="Arial" font-size="24" font-weight="bold" fill="#1e40af" text-anchor="middle">VD-Tech 전문가 협업 프로세스</text>
  <text x="400" y="70" font-family="Arial" font-size="16" fill="#64748b" text-anchor="middle">인증 · 특허 · 조달을 연계한 통합 전략 컨설팅</text>
</svg> 